# xmcd
#
# Track frame offsets: 
#        150
#        12199
#        25625
#        39264
#        47736
#        60081
#        70477
#        82632
#        93114
#        103127
#        114596
#
# Disc length: 1662 seconds
#
# Revision: 2
# Processed by: cddbd v1.5.2PL0 Copyright (c) Steve Scherf et al.
# Submitted via: ExactAudioCopyFreeDBPlugin 1.0
#
DISCID=74067c0b
DTITLE=Glen Campbell - 1968 - A New Place In the Sun
DYEAR=1968
DGENRE=Country
TTITLE0=Freeborn Man
TTITLE1=The Last Letter
TTITLE2=She Called Me Baby
TTITLE3=Visions of Sugarplums
TTITLE4=I Have No One To Love Me Anymore
TTITLE5=The Legend of Bonnie and Clyde
TTITLE6=A Place In the Sun
TTITLE7=Have I Stayed Away Too Long?
TTITLE8=Within My Memory
TTITLE9=The Twelfth of Never
TTITLE10=Sunny Day Girl
EXTD=Capitol ST-2907\nArranged and Conducted by Al de Lory
EXTT0=
EXTT1=
EXTT2=
EXTT3=
EXTT4=
EXTT5=
EXTT6=
EXTT7=
EXTT8=
EXTT9=
EXTT10=
PLAYORDER=
